<svg width="42" height="56" viewBox="0 0 42 56" fill="none" xmlns="http://www.w3.org/2000/svg">
<g filter="url(#filter0_d_106_7169)">
<path d="M4.772 52C4.772 50.7427 4.90867 49.1847 5.182 47.326C5.45533 45.4673 6.02933 43.5267 6.904 41.504C7.83333 39.4267 9.22733 37.4313 11.086 35.518C12.9447 33.55 15.4867 31.8553 18.712 30.434C20.2427 29.778 21.8827 29.0673 23.632 28.302C25.3813 27.5367 27.0213 26.662 28.552 25.678C30.1373 24.6393 31.422 23.4093 32.406 21.988C33.39 20.5667 33.882 18.872 33.882 16.904C33.882 15.3187 33.4173 13.7607 32.488 12.23C31.5587 10.6993 30.1647 9.442 28.306 8.458C26.502 7.474 24.1787 6.982 21.336 6.982C18.712 6.982 16.4433 7.474 14.53 8.458C12.6167 9.442 11.0587 10.508 9.856 11.656C8.65333 12.7493 7.888 13.5147 7.56 13.952L5.592 12.148C5.64667 12.0387 6.05667 11.6013 6.822 10.836C7.58733 10.016 8.65333 9.114 10.02 8.13C11.4413 7.09133 13.1087 6.21666 15.022 5.506C16.99 4.74066 19.1767 4.358 21.582 4.358C24.862 4.358 27.6227 4.95933 29.864 6.162C32.16 7.36467 33.882 8.92267 35.03 10.836C36.2327 12.6947 36.834 14.6627 36.834 16.74C36.834 19.1453 36.2873 21.1953 35.194 22.89C34.1553 24.53 32.7887 25.924 31.094 27.072C29.454 28.1653 27.732 29.122 25.928 29.942C24.124 30.7073 22.484 31.418 21.008 32.074C18.22 33.3313 15.9513 34.78 14.202 36.42C12.5073 38.0053 11.1953 39.618 10.266 41.258C9.33667 42.898 8.68067 44.456 8.298 45.932C7.91533 47.3533 7.66933 48.5013 7.56 49.376H37.736V52H4.772Z" fill="#11CABE"/>
</g>
<defs>
<filter id="filter0_d_106_7169" x="0.771973" y="0.35791" width="40.9639" height="55.6421" filterUnits="userSpaceOnUse" color-interpolation-filters="sRGB">
<feFlood flood-opacity="0" result="BackgroundImageFix"/>
<feColorMatrix in="SourceAlpha" type="matrix" values="0 0 0 0 0 0 0 0 0 0 0 0 0 0 0 0 0 0 127 0" result="hardAlpha"/>
<feOffset/>
<feGaussianBlur stdDeviation="2"/>
<feComposite in2="hardAlpha" operator="out"/>
<feColorMatrix type="matrix" values="0 0 0 0 0.0666667 0 0 0 0 0.792157 0 0 0 0 0.745098 0 0 0 1 0"/>
<feBlend mode="normal" in2="BackgroundImageFix" result="effect1_dropShadow_106_7169"/>
<feBlend mode="normal" in="SourceGraphic" in2="effect1_dropShadow_106_7169" result="shape"/>
</filter>
</defs>
</svg>
