<svg width="44" height="69" viewBox="0 0 44 69" fill="none" xmlns="http://www.w3.org/2000/svg">
<g filter="url(#filter0_d_106_7162)">
<path d="M27.076 32.648C30.9027 33.1947 33.964 34.862 36.26 37.65C38.556 40.438 39.704 43.8547 39.704 47.9C39.704 51.1253 38.9387 53.9407 37.408 56.346C35.932 58.7513 33.8547 60.6373 31.176 62.004C28.4973 63.3707 25.4087 64.054 21.91 64.054C17.81 64.054 14.202 63.1247 11.086 61.266C8.02467 59.462 5.86533 57.002 4.608 53.886L6.822 52.41C7.806 55.1433 9.63733 57.33 12.316 58.97C15.0493 60.61 18.2747 61.43 21.992 61.43C26.5293 61.43 30.1373 60.2 32.816 57.74C35.5493 55.28 36.916 51.9453 36.916 47.736C36.916 43.472 35.522 40.11 32.734 37.65C30.0007 35.1353 26.2287 33.878 21.418 33.878H19.532V31.336H21.5C26.092 31.336 29.618 30.3247 32.078 28.302C34.5927 26.2793 35.85 23.5187 35.85 20.02C35.85 17.4507 35.2487 15.2367 34.046 13.378C32.8433 11.4647 31.176 9.98866 29.044 8.95C26.9667 7.91133 24.5887 7.392 21.91 7.392C18.5753 7.392 15.6233 8.212 13.054 9.852C10.4847 11.4373 8.65333 13.5693 7.56 16.248L5.51 14.854C6.658 11.8473 8.73533 9.41466 11.742 7.556C14.8033 5.69733 18.2473 4.768 22.074 4.768C25.2993 4.768 28.142 5.424 30.602 6.736C33.1167 7.99333 35.0847 9.74266 36.506 11.984C37.982 14.1707 38.72 16.6853 38.72 19.528C38.72 22.972 37.654 25.8967 35.522 28.302C33.4447 30.7073 30.6293 32.156 27.076 32.648Z" fill="#BD47FB"/>
</g>
<defs>
<filter id="filter0_d_106_7162" x="0.60791" y="0.768066" width="43.0962" height="67.2861" filterUnits="userSpaceOnUse" color-interpolation-filters="sRGB">
<feFlood flood-opacity="0" result="BackgroundImageFix"/>
<feColorMatrix in="SourceAlpha" type="matrix" values="0 0 0 0 0 0 0 0 0 0 0 0 0 0 0 0 0 0 127 0" result="hardAlpha"/>
<feOffset/>
<feGaussianBlur stdDeviation="2"/>
<feComposite in2="hardAlpha" operator="out"/>
<feColorMatrix type="matrix" values="0 0 0 0 0.741176 0 0 0 0 0.278431 0 0 0 0 0.984314 0 0 0 1 0"/>
<feBlend mode="normal" in2="BackgroundImageFix" result="effect1_dropShadow_106_7162"/>
<feBlend mode="normal" in="SourceGraphic" in2="effect1_dropShadow_106_7162" result="shape"/>
</filter>
</defs>
</svg>
