<svg width="32" height="33" viewBox="0 0 32 33" fill="none" xmlns="http://www.w3.org/2000/svg">
<g clip-path="url(#clip0_106_7265)">
<path d="M7.008 0.5H24.992C28.8625 0.5 32 3.6375 32 7.508V25.492C32 29.3625 28.8625 32.5 24.992 32.5H7.008C3.1375 32.5 0 29.3625 0 25.492V7.508C0 3.6375 3.1375 0.5 7.008 0.5Z" fill="url(#paint0_linear_106_7265)"/>
<path d="M10.2554 23.7261L10.2584 23.7271L9.1643 25.6221C8.76493 26.3138 7.88043 26.5508 7.18868 26.1515C6.49705 25.7521 6.25993 24.8676 6.6593 24.1758L7.4653 22.7798L7.54268 22.6458C7.6808 22.4473 8.02168 22.1046 8.70355 22.1691C8.70355 22.1691 10.3082 22.3432 10.4243 23.1772C10.4243 23.1772 10.4401 23.4516 10.2554 23.7261ZM25.7733 18.8861H22.3616C22.1292 18.8705 22.0278 18.7875 21.9878 18.7392L21.9853 18.7348L18.3332 12.4091L18.3284 12.4122L18.1094 12.0982C17.7504 11.5492 17.1804 12.9532 17.1804 12.9532C16.4998 14.5177 17.2771 16.2963 17.5479 16.834L22.6207 25.6202C23.0199 26.3118 23.9044 26.549 24.5963 26.1495C25.2879 25.7501 25.5251 24.8656 25.1256 24.1738L23.8572 21.9768C23.8326 21.9236 23.7898 21.7791 24.0499 21.7785H25.7733C26.5721 21.7785 27.2196 21.131 27.2196 20.3322C27.2196 19.5335 26.5721 18.886 25.7733 18.886V18.8861ZM19.1466 20.8521C19.1466 20.8521 19.3287 21.7785 18.6241 21.7785H6.01168C5.21293 21.7785 4.56543 21.131 4.56543 20.3322C4.56543 19.5335 5.21293 18.886 6.01168 18.886H9.25418C9.77768 18.8557 9.90168 18.5535 9.90168 18.5535L9.90468 18.555L14.1372 11.224L14.1359 11.2237C14.2131 11.0821 14.1488 10.9482 14.1377 10.9271L12.7398 8.50596C12.3404 7.81434 12.5774 6.92971 13.2692 6.53046C13.9609 6.13109 14.8454 6.36796 15.2448 7.05971L15.8931 8.18259L16.5402 7.06171C16.9396 6.37009 17.8241 6.13296 18.5158 6.53246C19.2076 6.93184 19.4446 7.81621 19.0452 8.50796L13.1554 18.7092C13.1297 18.7713 13.1218 18.8688 13.3134 18.886H16.8339L16.8347 18.9203C16.8347 18.9203 18.8694 18.952 19.1466 20.8521Z" fill="white"/>
</g>
<defs>
<linearGradient id="paint0_linear_106_7265" x1="16" y1="0.5" x2="16" y2="32.5" gradientUnits="userSpaceOnUse">
<stop stop-color="#17C9FB"/>
<stop offset="1" stop-color="#1A74E8"/>
</linearGradient>
<clipPath id="clip0_106_7265">
<rect width="32" height="32" fill="white" transform="translate(0 0.5)"/>
</clipPath>
</defs>
</svg>
