<svg width="18" height="18" viewBox="0 0 18 18" fill="none" xmlns="http://www.w3.org/2000/svg">
<path fill-rule="evenodd" clip-rule="evenodd" d="M13.2361 13.9044C12.8432 13.9966 12.4462 14.0651 12.0471 14.1098C11.5174 15.9281 10.0477 17.3311 8.18983 17.7669C6.86509 18.0777 5.4864 18.0777 4.16166 17.7669C2.21235 17.3097 0.690306 15.7877 0.233058 13.8383C-0.0776861 12.5136 -0.077686 11.1349 0.233058 9.81016C0.668854 7.9523 2.07188 6.48256 3.89019 5.95289C3.93495 5.55384 4.00341 5.1568 4.09558 4.76387C4.61876 2.53347 6.36028 0.791952 8.59068 0.268771C10.1184 -0.0895901 11.7084 -0.0895903 13.2361 0.26877C15.4665 0.791952 17.208 2.53347 17.7312 4.76388C18.0896 6.29162 18.0896 7.88157 17.7312 9.40932C17.208 11.6397 15.4665 13.3812 13.2361 13.9044ZM8.59069 13.9044C9.22571 14.0534 9.87148 14.1404 10.5191 14.1655C10.0404 15.2705 9.0633 16.1022 7.86525 16.3832C6.754 16.6439 5.5975 16.6439 4.48624 16.3832C3.06246 16.0492 1.95077 14.9375 1.6168 13.5138C1.35613 12.4025 1.35613 11.246 1.6168 10.1347C1.89782 8.9367 2.72952 7.95962 3.83446 7.48094C3.8558 8.03115 3.92185 8.58005 4.03259 9.12217C4.05219 9.21811 4.07318 9.31384 4.09558 9.40932C4.61876 11.6397 6.36028 13.3812 8.59069 13.9044Z" fill="white"/>
</svg>
