<svg width="22" height="17" viewBox="0 0 22 17" fill="none" xmlns="http://www.w3.org/2000/svg">
<path d="M17.8468 1.33005C16.5168 0.710046 15.0768 0.260046 13.5768 4.59982e-05C13.5636 -0.000374605 13.5505 0.00209348 13.5384 0.00727676C13.5264 0.01246 13.5155 0.0202326 13.5068 0.0300462C13.3268 0.360046 13.1168 0.790046 12.9768 1.12005C11.3858 0.880046 9.76778 0.880046 8.17678 1.12005C8.03678 0.780046 7.82678 0.360046 7.63678 0.0300462C7.62678 0.0100462 7.59678 4.59982e-05 7.56678 4.59982e-05C6.06678 0.260046 4.63678 0.710046 3.29678 1.33005C3.28678 1.33005 3.27678 1.34005 3.26678 1.35005C0.546777 5.42005 -0.203223 9.38004 0.166777 13.3C0.166777 13.32 0.176777 13.34 0.196777 13.35C1.99678 14.67 3.72678 15.47 5.43678 16C5.46678 16.01 5.49678 16 5.50678 15.98C5.90678 15.43 6.26678 14.85 6.57678 14.24C6.59678 14.2 6.57678 14.16 6.53678 14.15C5.96678 13.93 5.42678 13.67 4.89678 13.37C4.85678 13.35 4.85678 13.29 4.88678 13.26C4.99678 13.18 5.10678 13.09 5.21678 13.01C5.23678 12.99 5.26678 12.99 5.28678 13C8.72678 14.57 12.4368 14.57 15.8368 13C15.8568 12.99 15.8868 12.99 15.9068 13.01C16.0168 13.1 16.1268 13.18 16.2368 13.27C16.2768 13.3 16.2768 13.36 16.2268 13.38C15.7068 13.69 15.1568 13.94 14.5868 14.16C14.5468 14.17 14.5368 14.22 14.5468 14.25C14.8668 14.86 15.2268 15.44 15.6168 15.99C15.6468 16 15.6768 16.01 15.7068 16C17.4268 15.47 19.1568 14.67 20.9568 13.35C20.9768 13.34 20.9868 13.32 20.9868 13.3C21.4268 8.77004 20.2568 4.84005 17.8868 1.35005C17.8768 1.34005 17.8668 1.33005 17.8468 1.33005ZM7.09678 10.91C6.06678 10.91 5.20678 9.96005 5.20678 8.79005C5.20678 7.62005 6.04678 6.67005 7.09678 6.67005C8.15678 6.67005 8.99678 7.63005 8.98678 8.79005C8.98678 9.96005 8.14678 10.91 7.09678 10.91ZM14.0668 10.91C13.0368 10.91 12.1768 9.96005 12.1768 8.79005C12.1768 7.62005 13.0168 6.67005 14.0668 6.67005C15.1268 6.67005 15.9668 7.63005 15.9568 8.79005C15.9568 9.96005 15.1268 10.91 14.0668 10.91Z" fill="#5D6588"/>
</svg>
