<svg width="138" height="286" viewBox="0 0 138 286" fill="none" xmlns="http://www.w3.org/2000/svg">
<path opacity="0.04" d="M136 285.748H0.219996L0.219996 201.676H25.516V255.988H54.346V204.652H79.642V255.988H110.704V200.374H136V285.748ZM137.302 130.67C137.302 140.962 136.062 149.27 133.582 155.594C130.978 161.918 126.7 166.568 120.748 169.544C114.672 172.396 106.488 173.822 96.196 173.822H55.834L55.834 189.26H34.072L34.072 173.822H6.54399V146.108H34.072V116.348H55.834V146.108H97.312C102.148 146.108 105.868 144.868 108.472 142.388C110.952 139.784 112.192 136.126 112.192 131.414V116.348H137.302V130.67ZM136 96.3361H0.219996V66.5761H50.812C37.544 61.1201 30.91 51.0761 30.91 36.4441V35.1421C30.91 23.8581 34.94 15.2401 43 9.28806C50.936 3.33606 62.592 0.360054 77.968 0.360054H136V30.1201H76.108C70.528 30.1201 66.064 31.7941 62.716 35.1421C59.244 38.3661 57.508 42.6441 57.508 47.9761C57.508 53.5561 59.368 58.0821 63.088 61.5541C66.684 64.9021 71.396 66.5761 77.224 66.5761H136L136 96.3361Z" fill="white"/>
</svg>
