<svg width="140" height="396" viewBox="0 0 140 396" fill="none" xmlns="http://www.w3.org/2000/svg">
<path opacity="0.04" d="M136 395.748H0.219996L0.219996 311.676H25.516V365.988H54.346V314.652H79.642V365.988H110.704V310.374H136V395.748ZM136 268.177L34.072 298.681L34.072 267.991L111.262 246.229V241.951L34.072 223.165V194.521L136 220.933V268.177ZM139.534 132.586C139.534 141.266 138.046 148.954 135.07 155.65C132.094 162.222 128.126 167.74 123.166 172.204C118.082 176.668 112.44 180.016 106.24 182.248C99.916 184.48 93.468 185.596 86.896 185.596H83.176C76.48 185.596 69.97 184.48 63.646 182.248C57.322 180.016 51.68 176.668 46.72 172.204C41.76 167.74 37.854 162.346 35.002 156.022C32.026 149.574 30.538 142.134 30.538 133.702C30.538 122.79 33.018 113.614 37.978 106.174C42.814 98.6096 49.2 92.8436 57.136 88.8756C65.072 84.9076 73.628 82.9236 82.804 82.9236H92.848V157.51C99.792 156.518 105.31 154.038 109.402 150.07C113.37 145.978 115.354 140.15 115.354 132.586C115.354 127.254 114.362 122.852 112.378 119.38C110.27 115.784 107.604 113.366 104.38 112.126V84.7836C114.796 87.0156 123.29 92.4096 129.862 100.966C136.31 109.398 139.534 119.938 139.534 132.586ZM54.718 133.702C54.718 140.15 56.578 145.42 60.298 149.512C63.894 153.48 69.102 156.022 75.922 157.138V111.382C69.102 112.374 63.894 114.792 60.298 118.636C56.578 122.356 54.718 127.378 54.718 133.702ZM136 63.2032H34.072L34.072 39.5812H68.668C57.136 38.4652 48.27 34.9312 42.07 28.9793C35.87 22.9032 32.77 14.6572 32.77 4.24125V0.335248H58.438V7.77525C58.438 16.0832 60.67 22.4692 65.134 26.9332C69.598 31.2732 75.922 33.4432 84.106 33.4432H136V63.2032Z" fill="white"/>
</svg>
