<svg width="32" height="33" viewBox="0 0 32 33" fill="none" xmlns="http://www.w3.org/2000/svg">
<g clip-path="url(#clip0_106_7272)">
<path d="M23.6017 21.3907C27.6592 19.3092 30.7351 17.7231 31.0002 17.5997C31.8484 17.1784 32.7242 16.063 31.0002 15.1967C30.4436 14.9242 27.4467 13.3875 23.6017 11.4058L18.2715 16.4353L23.6017 21.3906V21.3907Z" fill="#FFD900"/>
<path d="M18.2712 16.4351L1.29907 32.4167C1.69745 32.466 2.1472 32.3673 2.67745 32.095C3.7907 31.5256 15.5922 25.5041 23.6014 21.3917L18.2712 16.4351Z" fill="#F43249"/>
<path d="M18.2712 16.4351L23.6015 11.4303C23.6015 11.4303 3.87121 1.37006 2.67746 0.776189C2.22771 0.527313 1.72371 0.453386 1.27271 0.527313L18.2712 16.4351Z" fill="#00EE76"/>
<path d="M18.2714 16.437L1.27287 0.529297C0.583 0.678319 0 1.24778 0 2.41239V30.5356C0 31.6015 0.451125 32.3693 1.29925 32.4433L18.2714 16.437Z" fill="#00D3FF"/>
</g>
<defs>
<clipPath id="clip0_106_7272">
<rect width="32" height="32" fill="white" transform="translate(0 0.5)"/>
</clipPath>
</defs>
</svg>
