<svg width="45" height="46" viewBox="0 0 45 46" fill="none" xmlns="http://www.w3.org/2000/svg">
<g filter="url(#filter0_d_415_6420)">
<path fill-rule="evenodd" clip-rule="evenodd" d="M39.4603 17.88C38.2886 10.6688 32.1635 5.30399 24.8607 5.0928C24.5135 5.07919 24.1751 5.2042 23.9202 5.44029C23.6652 5.67637 23.5146 6.00415 23.5015 6.35138V6.35138V6.46885L24.3237 18.7694C24.3777 19.5974 25.0895 20.2269 25.9179 20.179L38.252 19.3567C38.5996 19.331 38.9225 19.1678 39.1493 18.9032C39.3761 18.6386 39.488 18.2945 39.4603 17.9471V17.88Z" stroke="#F27F16" stroke-width="2" stroke-linecap="round" stroke-linejoin="round"/>
<path d="M16.3194 12.4086C17.1039 12.2271 17.9068 12.6286 18.2324 13.3651C18.3177 13.5384 18.3689 13.7263 18.3834 13.9189C18.5512 16.3018 18.9036 21.5207 19.105 24.3399C19.1394 24.8478 19.3747 25.321 19.759 25.6548C20.1432 25.9887 20.6446 26.1556 21.1523 26.1187V26.1187L31.5062 25.4811C31.9685 25.4533 32.4216 25.6177 32.7585 25.9355C33.0953 26.2533 33.2859 26.6961 33.285 27.1592V27.1592C32.8654 33.4115 28.3733 38.6384 22.2551 39.9933C16.1369 41.3481 9.85808 38.5064 6.83804 33.0158C5.9365 31.4355 5.36557 29.6884 5.15993 27.8808C5.07202 27.326 5.0383 26.764 5.05925 26.2026C5.07705 19.5257 9.76634 13.7725 16.3026 12.4086" stroke="#F27F16" stroke-width="2" stroke-linecap="round" stroke-linejoin="round"/>
</g>
<defs>
<filter id="filter0_d_415_6420" x="-4" y="-4" width="52" height="52" filterUnits="userSpaceOnUse" color-interpolation-filters="sRGB">
<feFlood flood-opacity="0" result="BackgroundImageFix"/>
<feColorMatrix in="SourceAlpha" type="matrix" values="0 0 0 0 0 0 0 0 0 0 0 0 0 0 0 0 0 0 127 0" result="hardAlpha"/>
<feOffset/>
<feGaussianBlur stdDeviation="2"/>
<feColorMatrix type="matrix" values="0 0 0 0 0.968627 0 0 0 0 0.576471 0 0 0 0 0.101961 0 0 0 1 0"/>
<feBlend mode="normal" in2="BackgroundImageFix" result="effect1_dropShadow_415_6420"/>
<feBlend mode="normal" in="SourceGraphic" in2="effect1_dropShadow_415_6420" result="shape"/>
</filter>
</defs>
</svg>
