<svg width="37" height="38" viewBox="0 0 37 38" fill="none" xmlns="http://www.w3.org/2000/svg">
<path fill-rule="evenodd" clip-rule="evenodd" d="M35.4603 13.88C34.2886 6.66876 28.1635 1.30399 20.8607 1.0928C20.5135 1.07919 20.1751 1.2042 19.9202 1.44029C19.6652 1.67637 19.5146 2.00415 19.5015 2.35138V2.35138V2.46885L20.3237 14.7694C20.3777 15.5974 21.0895 16.2269 21.9179 16.179L34.252 15.3567C34.5996 15.331 34.9225 15.1678 35.1493 14.9032C35.3761 14.6386 35.488 14.2945 35.4603 13.9471V13.88Z" stroke="#F27F16" stroke-width="2" stroke-linecap="round" stroke-linejoin="round"/>
<path d="M12.3194 8.40957C13.1039 8.22809 13.9068 8.62953 14.2324 9.36609C14.3177 9.53933 14.3689 9.72732 14.3834 9.91987C14.5512 12.3028 14.9036 17.5217 15.105 20.3409C15.1394 20.8488 15.3747 21.322 15.759 21.6558C16.1432 21.9896 16.6446 22.1566 17.1523 22.1197V22.1197L27.5062 21.482C27.9685 21.4542 28.4216 21.6187 28.7585 21.9365C29.0953 22.2542 29.2859 22.6971 29.285 23.1601V23.1601C28.8654 29.4125 24.3733 34.6394 18.2551 35.9942C12.1369 37.3491 5.85808 34.5074 2.83804 29.0167C1.9365 27.4365 1.36557 25.6894 1.15993 23.8817C1.07202 23.3269 1.0383 22.7649 1.05925 22.2036C1.07705 15.5266 5.76634 9.7735 12.3026 8.40957" stroke="#F27F16" stroke-width="2" stroke-linecap="round" stroke-linejoin="round"/>
</svg>
