<svg width="19" height="20" viewBox="0 0 19 20" fill="none" xmlns="http://www.w3.org/2000/svg">
<path d="M9.57677 6.87579C7.85646 6.87579 6.45255 8.2797 6.45255 10C6.45255 11.7203 7.85646 13.1242 9.57677 13.1242C11.2971 13.1242 12.701 11.7203 12.701 10C12.701 8.2797 11.2971 6.87579 9.57677 6.87579ZM18.9471 10C18.9471 8.70626 18.9588 7.42423 18.8861 6.13283C18.8135 4.63283 18.4713 3.30158 17.3744 2.2047C16.2752 1.10548 14.9463 0.765639 13.4463 0.692982C12.1526 0.620326 10.8705 0.632045 9.57911 0.632045C8.28536 0.632045 7.00333 0.620326 5.71193 0.692982C4.21193 0.765639 2.88068 1.10783 1.7838 2.2047C0.684584 3.30392 0.34474 4.63283 0.272084 6.13283C0.199428 7.42658 0.211146 8.70861 0.211146 10C0.211146 11.2914 0.199428 12.5758 0.272084 13.8672C0.34474 15.3672 0.686928 16.6985 1.7838 17.7953C2.88302 18.8945 4.21193 19.2344 5.71193 19.307C7.00568 19.3797 8.28771 19.368 9.57911 19.368C10.8729 19.368 12.1549 19.3797 13.4463 19.307C14.9463 19.2344 16.2776 18.8922 17.3744 17.7953C18.4736 16.6961 18.8135 15.3672 18.8861 13.8672C18.9611 12.5758 18.9471 11.2938 18.9471 10ZM9.57677 14.807C6.91661 14.807 4.76974 12.6602 4.76974 10C4.76974 7.33986 6.91661 5.19298 9.57677 5.19298C12.2369 5.19298 14.3838 7.33986 14.3838 10C14.3838 12.6602 12.2369 14.807 9.57677 14.807ZM14.5807 6.11876C13.9596 6.11876 13.458 5.6172 13.458 4.99611C13.458 4.37501 13.9596 3.87345 14.5807 3.87345C15.2018 3.87345 15.7033 4.37501 15.7033 4.99611C15.7035 5.14359 15.6746 5.28966 15.6183 5.42595C15.5619 5.56224 15.4792 5.68607 15.3749 5.79036C15.2706 5.89464 15.1468 5.97733 15.0105 6.03368C14.8742 6.09004 14.7282 6.11895 14.5807 6.11876Z" fill="#5D6588"/>
</svg>
