<svg width="36" height="34" viewBox="0 0 36 34" fill="none" xmlns="http://www.w3.org/2000/svg">
<path fill-rule="evenodd" clip-rule="evenodd" d="M20.0245 2.65817L23.3747 9.35121C23.7031 10.0083 24.3368 10.4639 25.0718 10.5693L32.5664 11.6481C34.4182 11.9155 35.155 14.1597 33.8149 15.4456L28.3953 20.6531C27.8627 21.1652 27.6203 21.9014 27.7463 22.6243L29.0253 29.9763C29.3403 31.795 27.4046 33.1826 25.7495 32.3222L19.0509 28.8486C18.3942 28.5078 17.6077 28.5078 16.9491 28.8486L10.2505 32.3222C8.59542 33.1826 6.65972 31.795 6.97661 29.9763L8.25372 22.6243C8.37971 21.9014 8.13727 21.1652 7.60467 20.6531L2.18508 15.4456C0.844978 14.1597 1.58184 11.9155 3.43355 11.6481L10.9282 10.5693C11.6632 10.4639 12.2988 10.0083 12.6272 9.35121L15.9755 2.65817C16.804 1.00327 19.196 1.00327 20.0245 2.65817Z" stroke="#BD47FB" stroke-width="2" stroke-linecap="round" stroke-linejoin="round"/>
</svg>
