<svg width="18" height="18" viewBox="0 0 18 18" fill="none" xmlns="http://www.w3.org/2000/svg">
<path fill-rule="evenodd" clip-rule="evenodd" d="M5.39199 0.666504H12.617C15.442 0.666504 17.3337 2.64984 17.3337 5.59984V12.409C17.3337 15.3498 15.442 17.3332 12.617 17.3332H5.39199C2.56699 17.3332 0.666992 15.3498 0.666992 12.409V5.59984C0.666992 2.64984 2.56699 0.666504 5.39199 0.666504ZM8.52533 11.4915L12.4837 7.53317C12.767 7.24984 12.767 6.7915 12.4837 6.49984C12.2003 6.2165 11.7337 6.2165 11.4503 6.49984L8.00866 9.9415L6.55033 8.48317C6.26699 8.19984 5.80033 8.19984 5.51699 8.48317C5.23366 8.7665 5.23366 9.22484 5.51699 9.5165L7.50033 11.4915C7.64199 11.6332 7.82533 11.6998 8.00866 11.6998C8.20033 11.6998 8.38366 11.6332 8.52533 11.4915Z" fill="url(#paint0_linear_188_400)"/>
<defs>
<linearGradient id="paint0_linear_188_400" x1="-8.49976" y1="-2" x2="20.0002" y2="22" gradientUnits="userSpaceOnUse">
<stop stop-color="#A5ADCF"/>
<stop offset="1" stop-color="#A5ADCF" stop-opacity="0"/>
</linearGradient>
</defs>
</svg>
