<svg width="24" height="20" viewBox="0 0 24 20" fill="none" xmlns="http://www.w3.org/2000/svg">
<path d="M23.2197 2.93659C22.3847 3.30659 21.4877 3.55659 20.5447 3.66959C21.5177 3.08738 22.2456 2.17105 22.5927 1.09159C21.6785 1.63458 20.678 2.01678 19.6347 2.22159C18.9331 1.47245 18.0037 0.975915 16.991 0.809063C15.9783 0.642211 14.9388 0.81438 14.0339 1.29884C13.1291 1.7833 12.4094 2.55295 11.9868 3.48829C11.5642 4.42363 11.4622 5.47234 11.6967 6.47159C9.84436 6.37858 8.0323 5.89714 6.3781 5.05849C4.72389 4.21985 3.26451 3.04275 2.09467 1.60359C1.69467 2.29359 1.46467 3.09359 1.46467 3.94559C1.46423 4.71258 1.6531 5.46783 2.01455 6.14432C2.376 6.82081 2.89883 7.39763 3.53667 7.82359C2.79695 7.80005 2.07354 7.60017 1.42667 7.24059V7.30059C1.4266 8.37633 1.7987 9.41897 2.47985 10.2516C3.16101 11.0842 4.10924 11.6555 5.16367 11.8686C4.47746 12.0543 3.75801 12.0817 3.05967 11.9486C3.35717 12.8742 3.93667 13.6836 4.71704 14.2635C5.49741 14.8434 6.43959 15.1648 7.41167 15.1826C5.76151 16.478 3.72356 17.1807 1.62567 17.1776C1.25405 17.1777 0.882748 17.156 0.513672 17.1126C2.64315 18.4818 5.12201 19.2084 7.65367 19.2056C16.2237 19.2056 20.9087 12.1076 20.9087 5.95159C20.9087 5.75159 20.9037 5.54959 20.8947 5.34959C21.806 4.69056 22.5926 3.87448 23.2177 2.93959L23.2197 2.93659Z" fill="#5D6588"/>
</svg>
